<?xml version="1.0" encoding="utf-8"?>
<!-- Generator: Adobe Illustrator 27.0.0, SVG Export Plug-In . SVG Version: 6.00 Build 0)  -->
<svg version="1.1" id="Layer_1" xmlns="http://www.w3.org/2000/svg" xmlns:xlink="http://www.w3.org/1999/xlink" x="0px" y="0px"
	 width="259.2px" height="202.5px" viewBox="0 0 259.2 202.5" style="enable-background:new 0 0 259.2 202.5;" xml:space="preserve"
	>
<style type="text/css">
	.st0{fill:#424243;}
	.st1{fill:#63666A;}
	.st2{fill:#15397F;}
	.st3{fill:#C7C9C8;}
	.st4{fill:#0033A0;}
	.st5{fill:#FFFFFF;}
</style>
<path class="st0" d="M190.8,201.3h-5.8l5.9-5.1c0.3-0.2,0-0.4-0.5-0.4h-12.7l81.5-70.6c0.3-0.2,0-0.4-0.5-0.4h-13.7
	c-0.6,0-1.2,0.2-1.5,0.4l-4.3,3.7h-102c-0.6,0-1.2,0.2-1.5,0.4l-9.1,7.9H84.8c-0.3,0-0.7,0.1-1.1,0.2c-0.3,0.1-0.5,0.3-0.6,0.4
	l-5,22.1l-45.9,22c-0.3,0.1-0.4,0.3-0.3,0.4c0.1,0.1,0.3,0.2,0.6,0.2h70c0,0,0.1,0,0.1,0h0c0,0,0.1,0,0.1,0h0c0,0,0.1,0,0.1,0
	c0,0,0.1,0,0.1,0h0c0,0,0.1,0,0.1,0l0.1,0c0,0,0.1,0,0.1,0c0.1,0,0.2,0,0.3-0.1c0,0,0.1,0,0.1,0l0,0c0,0,0,0,0.1,0l0,0
	c0,0,0.1,0,0.1-0.1c0,0,0,0,0.1,0l9.1-7.9h73.5l-24.9,21.6h-12.7c-0.6,0-1.2,0.2-1.5,0.4l-5.9,5.1h-5.8c-0.6,0-1.2,0.2-1.5,0.4
	s0,0.4,0.6,0.4h54.9c0.6,0,1.2-0.2,1.5-0.4C191.6,201.5,191.3,201.3,190.8,201.3z"/>
<rect x="139.9" y="186.3" class="st1" width="44.2" height="14.6"/>
<polygon class="st2" points="75.5,128.2 47.4,128.6 74.7,149.1 "/>
<polygon class="st1" points="154.6,128.3 46.5,128 46.7,117.5 154.3,117.5 "/>
<polygon class="st1" points="73.3,149.4 1.8,149.4 5.2,139 61.7,139 "/>
<rect x="155" y="12" class="st3" width="14.7" height="175.2"/>
<rect x="156" y="1.1" class="st1" width="13.2" height="10.3"/>
<polygon class="st1" points="1.1,34.8 46.1,34.8 45.8,43.8 5.3,43.8 "/>
<rect x="46.4" y="12.3" class="st1" width="107.6" height="10.8"/>
<polygon class="st4" points="46.7,44.9 5.3,44.9 23.4,92.4 5,138.5 58,138.5 45.7,127.4 "/>
<rect x="46.4" y="22.5" class="st4" width="107.6" height="94.6"/>
<path d="M133.2,202.5c-0.6,0-1.1-0.5-1.1-1.1s0.5-1.1,1.1-1.1h6.2v-13.4c0-0.6,0.5-1.1,1.1-1.1h13.4v-56.5H76.2V150c0,0,0,0.1,0,0.1
	c0,0.1,0,0.1,0,0.1l0,0c0,0,0,0.1,0,0.1l0,0.1c0,0,0,0.1-0.1,0.1c-0.1,0.1-0.1,0.2-0.2,0.2c-0.1,0.1-0.1,0.1-0.1,0.1l0,0
	c0,0-0.1,0-0.1,0.1h0c-0.1,0-0.1,0-0.1,0.1c-0.1,0-0.1,0-0.1,0l0,0c0,0-0.1,0-0.1,0h0c0,0-0.1,0-0.1,0h-74c-0.4,0-0.7-0.2-0.9-0.5
	c-0.2-0.3-0.2-0.7-0.1-1l21.6-57.7L0.1,34.2c-0.1-0.3-0.1-0.7,0.1-1c0.2-0.3,0.5-0.5,0.9-0.5H45V12c0-0.6,0.5-1.1,1.1-1.1h107.8V1.1
	c0-0.6,0.5-1.1,1.1-1.1h14.5c0.6,0,1.1,0.5,1.1,1.1v184.7h13.4c0.6,0,1.1,0.5,1.1,1.1v13.4h6.2c0.6,0,1.1,0.5,1.1,1.1
	s-0.5,1.1-1.1,1.1L133.2,202.5L133.2,202.5z M141.5,200.3h41.4V188h-41.4L141.5,200.3L141.5,200.3z M156.1,185.8h12.3V13.1h-12.3
	v104.3V185.8z M2.7,148.9h69.1l-11.6-8.7H5.9L2.7,148.9z M74,147.8v-18.5H49.3L74,147.8z M23.9,91.5c0.1,0.2,0.1,0.5,0,0.8L6.8,138
	h50.5l-11.8-8.9c0,0-0.1-0.1-0.1-0.1l-0.1-0.1l-0.1-0.1l-0.1-0.1l-0.1-0.1l-0.1-0.1l0-0.1l0-0.1l0-0.1l0-0.1v-0.1V45.7H6.8
	L23.9,91.5z M47.1,127.1h106.7v-8.7H47.1V127.1z M47.1,116.2h106.7V24H47.1v20.8V116.2z M5.9,43.6h39v-8.7H2.7L5.9,43.6z M47.1,21.8
	h106.7v-8.7H47.1V21.8z M156.1,10.9h12.3V2.2h-12.3V10.9z"/>
<g>
	<path class="st5" d="M65,46c-1.5,0-3,0-4.4,0c-0.1-0.3-0.1-11.3,0-12c9,0,17.9,0,26.9,0c0,4,0,7.9,0,11.9c-1.5,0-2.9,0-4.4,0
		c-0.1,0.4-0.1,9.8-0.1,10.4c0.3,0.1,17.3,0.1,17.9,0c0-3.4,0-6.9,0-10.4c-1.5,0-2.9,0-4.4,0c0-4,0-8,0-12c9,0,17.9,0,26.9,0
		c0,4,0,7.9,0,11.9c-0.5,0.1-1,0-1.5,0c-0.5,0-1,0-1.5,0c-0.5,0-1,0-1.5,0c-0.1,0.4-0.1,9.9,0,10.5c2.6,0,5.3,0,8,0
		c2.6,0,5.3,0,7.9,0c2.7,0,5.3,0,8,0c0,4,0,8,0,12c-0.2,0-0.3,0-0.5,0c-2.1,0-4.3,0-6.4,0c-0.4,0-0.7,0.1-1,0.4
		c-3.1,3.1-6.2,6.2-9.3,9.3c-0.1,0.1-0.3,0.2-0.4,0.3c0.2,0.2,0.3,0.3,0.4,0.4c3.4,3.4,6.8,6.8,10.1,10.1c0.3,0.3,0.5,0.4,0.9,0.4
		c1.9,0,3.8,0,5.7,0c0.2,0,0.3,0,0.5,0c0,0,0,0,0.1,0.1c0,0,0,0,0,0c0,0.1,0,0.2,0,0.3c0,3.8,0,7.7,0,11.5c0,0,0,0.1,0,0.1
		c-9.5,0-18.9,0-28.4,0c0-0.2,0-0.4,0-0.5c0-2.9,0-5.8,0-8.6c0-0.3-0.1-0.6-0.3-0.8c-1.6-1.6-3.1-3.1-4.7-4.7
		c-0.2-0.2-0.3-0.3-0.6-0.3c-2.5,0-5,0-7.5,0c-0.1,0-0.2,0-0.3,0c0,0.9,0,1.9,0,2.9c0.5,0.1,1,0,1.4,0c0.5,0,1,0,1.4,0
		c0.5,0,1,0,1.5,0c0.1,0.3,0.1,11.4,0,12c-9,0-17.9,0-26.9,0c0-4,0-8,0-12c1.5,0,2.9,0,4.4,0c0.1-0.3,0.1-12.9,0-13.4
		c-0.2,0-0.3,0-0.5,0c-3.2,0-6.3,0-9.5,0c-0.3,0-0.5-0.1-0.7-0.3c-2.3-2.3-4.6-4.6-6.9-6.9C65.1,68.6,65,68.3,65,68
		c0-7.1,0-14.2,0-21.4C65,46.5,65,46.3,65,46z M66.6,44.5c0,0.2,0,0.4,0,0.6c0,7.4,0,14.7,0,22.1c0,0.3,0.1,0.5,0.3,0.8
		c2,2,4.1,4.1,6.1,6.1c0.2,0.2,0.5,0.3,0.8,0.3c3.4,0,6.8,0,10.2,0c0.2,0,0.3,0,0.5,0c0.1,0.6,0.1,16.1,0,16.5c-1.4,0-2.9,0-4.4,0
		c0,3,0,5.9,0,8.9c8,0,15.9,0,23.9,0c0.1-0.6,0.1-8.6,0-8.9c-1.4,0-2.9,0-4.4,0c0-2,0-4,0-6c0.2,0,0.3,0,0.4,0c3.2,0,6.5,0,9.7,0
		c0.3,0,0.5,0.1,0.6,0.3c1.8,1.8,3.6,3.6,5.4,5.4c0.2,0.2,0.3,0.4,0.3,0.7c0,2.7,0,5.3,0,8c0,0.2,0,0.3,0,0.5c0.1,0,0.1,0.1,0.1,0.1
		c8.3,0,16.5,0,24.8,0c0.1,0,0.3,0,0.4,0c0,0,0,0,0,0c0,0,0,0,0,0c0-2.9,0-5.9,0-8.9c-0.2,0-0.3,0-0.5,0c-1.7,0-3.4,0-5.1,0
		c-0.2,0-0.4-0.1-0.6-0.2c-4-4-7.9-7.9-11.9-11.9c-0.1-0.1-0.1-0.2-0.2-0.3c0.1-0.1,0.1-0.1,0.2-0.2c3.7-3.7,7.5-7.5,11.2-11.2
		c0.2-0.2,0.3-0.2,0.6-0.2c1.9,0,3.9,0,5.8,0c0.2,0,0.3,0,0.5,0c0.1-0.6,0.1-8.6,0-8.9c-7.9,0-15.9,0-23.8,0c0-4.5,0-9,0-13.5
		c1.5,0,3,0,4.4,0c0.1-0.7,0.1-8.6,0-8.9c-7.9,0-15.9,0-23.8,0c0,3,0,5.9,0,9c1.5,0,2.9,0,4.4,0c0,4.5,0,9,0,13.4
		c-0.8,0.1-20.6,0.1-20.9,0c0-4.4,0-8.9,0-13.4c1.5,0,2.9,0,4.4,0c0-3,0-6,0-8.9c-0.5-0.1-23.5-0.1-23.9,0c-0.1,0.8-0.1,8.6,0.1,8.9
		C63.6,44.5,65.1,44.5,66.6,44.5z"/>
	<path class="st5" d="M117.5,98.4c0-2,0-3.9,0-5.9c0.7,0,1.4,0,2.1,0c-0.1-0.1-0.2-0.2-0.2-0.3c-2.8-2.8-5.6-5.6-8.5-8.5
		c-0.1-0.1-0.3-0.2-0.5-0.2c-4,0-8.1,0-12.1,0c-0.1,0-0.1,0-0.2,0c-0.1,0.3-0.1,8.2,0,9c1.4,0,2.9,0,4.4,0c0.1,0.3,0.1,5.3,0,6
		c-7,0-13.9,0-20.9,0c0-2,0-3.9,0-6c1.5,0,2.9,0,4.4,0c0-9,0-17.9,0-26.9c-1.5,0-2.9,0-4.4,0c0-2,0-4,0-6c7,0,13.9,0,20.9,0
		c0.1,0.3,0.1,5.2,0,6c-0.5,0-1,0-1.5,0c-0.5,0-1,0-1.4,0c-0.5,0-1,0-1.5,0c-0.1,0.3-0.1,8.4,0,8.9c0.1,0,0.3,0,0.4,0
		c3.9,0,7.9,0,11.8,0c0.3,0,0.5-0.1,0.7-0.3c2.8-2.8,5.5-5.5,8.3-8.3c0.1-0.1,0.2-0.2,0.3-0.4c-0.8,0-1.4,0-2.1,0c0-2,0-4,0-6
		c7.5,0,14.9,0,22.4,0c0,2,0,4,0,6c-0.2,0-0.3,0-0.5,0c-1.7,0-3.4,0-5.1,0c-0.2,0-0.4,0.1-0.6,0.2c-4.2,4.2-8.4,8.4-12.6,12.6
		c-0.1,0.1-0.1,0.1-0.2,0.2c0.1,0.1,0.2,0.2,0.3,0.3c4.4,4.4,8.9,8.9,13.3,13.3c0.2,0.2,0.4,0.3,0.6,0.3c1.4,0,2.9,0,4.3,0
		c0.2,0,0.3,0,0.5,0c0.1,0.3,0.1,5.1,0.1,5.9C139.6,98.4,118.1,98.5,117.5,98.4z"/>
	<path class="st5" d="M68,43c-1.5,0-3,0-4.4,0c-0.1-0.3-0.1-5.1-0.1-5.9c0.3-0.1,20.5-0.1,21,0c0,2,0,3.9,0,5.9c-0.5,0-1,0-1.5,0
		c-0.5,0-1,0-1.5,0c-0.5,0-1,0-1.5,0c0,8,0,15.9,0,23.9c0.5,0,1,0,1.5,0c0.5,0,1,0,1.5,0c0.5,0,1,0,1.5,0c0,2,0,4,0,6
		c-0.1,0-0.3,0-0.4,0c-3.2,0-6.5,0-9.7,0c-0.2,0-0.4-0.1-0.6-0.2c-1.8-1.9-3.7-3.7-5.5-5.5c-0.2-0.2-0.2-0.4-0.2-0.7
		c0-7,0-13.9,0-20.9c0-0.7,0-1.5,0-2.2C68.1,43.4,68.1,43.2,68,43z"/>
	<path class="st5" d="M120.5,37c0,2,0,3.9,0,6c-1.5,0.1-3,0-4.5,0c0,0.2,0,0.4,0,0.6c0,7.6,0,15.2,0,22.9c0,0.4-0.1,0.6-0.4,0.9
		c-1.8,1.8-3.6,3.6-5.4,5.4c-0.2,0.2-0.3,0.3-0.6,0.3c-3.3,0-6.5,0-9.8,0c-0.1,0-0.2,0-0.3,0c-0.1-0.3-0.1-5.5,0-6
		c1.5,0,2.9,0,4.4,0c0.1-0.4,0.1-23.4,0-23.9c-1.4,0-2.9,0-4.4,0c-0.1-0.4-0.1-5.4,0-6C106.5,37,113.4,37,120.5,37z"/>
</g>
</svg>
